<svg id="art.svg" xmlns="http://www.w3.org/2000/svg" width="221.032" height="223.562" viewBox="0 0 221.032 223.562">
  <defs>
    <style>
      .cls-1 {
        fill: #c5c5c5;
      }

      .cls-1, .cls-2, .cls-3, .cls-4, .cls-5, .cls-6, .cls-7 {
        fill-rule: evenodd;
      }

      .cls-2, .cls-8 {
        fill: #ff3600;
      }

      .cls-3 {
        fill: #ff6000;
      }

      .cls-4 {
        fill: #1d0b00;
      }

      .cls-5 {
        fill: #4b589c;
      }

      .cls-6 {
        fill: #f7f7f7;
      }

      .cls-7 {
        fill: #fff1ad;
      }
    </style>
  </defs>
  <path id="bg" class="cls-1" d="M311,144s30.5,15.624,5,63c0,0-20.066,17.9,24,32,6.591,2.109,22.577,8.133,18,26-2.3,8.97-33.146,18.3-21,42,0,0,15,35.8-11,39,0,0-38.218,6.5-77-13,0,0-8.8-8.8-25-4a198.139,198.139,0,0,1-28.385,7.843C173.877,340.905,149.638,326.89,145,304c-6.524-32.2,9.137-39.72,11.422-55.123s-9.165-35.723-12.318-39.563-22.57-57.1,27.713-68.154c0,0,31.1-10.122,60.1,8.738S273.106,153.21,279,149,300.776,139.58,311,144Z" transform="translate(-137.781 -138.438)"/>
  <g id="man">
    <path class="cls-2" d="M210,256s-4.976,42.341,31,106h5s-26.705-65.493-9-98Z" transform="translate(-137.781 -138.438)"/>
    <path class="cls-3" d="M228,264s10.678,69.787,51,98h6s-42.92-56.75-33-101Z" transform="translate(-137.781 -138.438)"/>
    <path class="cls-4" d="M279,362s21.01-10.961,28,0H279Z" transform="translate(-137.781 -138.438)"/>
    <path class="cls-4" d="M232,362s6.863-10.02,14,0H232Z" transform="translate(-137.781 -138.438)"/>
    <path class="cls-5" d="M179,178s8.826,18.629,40,16c0,0,23.078-8.692,40,18,0,0,16.8,33.84,40,16,0,0-4.738,16.87-28,19,0,0-4.914.908-12,9,0,0-8.9,15.3-32,11,0,0-29.681-7.508-25-32,0,0,1.5-7.771-3-13C199,222,179,213.143,179,178Z" transform="translate(-137.781 -138.438)"/>
    <path class="cls-2" d="M299,227s-1.454-3.075,2-7c0,0,5.242-1.2,4-5,0,0,5,7.994-2,12h-4Z" transform="translate(-137.781 -138.438)"/>
    <path class="cls-6" d="M166,164s-5.4,23.707,9,28c0,0,2.768,1.114,3-3,0,0-1.5-17.312,4-10,0,0,1.173,3.283,5-1,0,0,6.234-16.091-4-21S167.9,159.722,166,164Z" transform="translate(-137.781 -138.438)"/>
    <path class="cls-7" d="M242,180s-1.842,13.43,7,17c0,0,4.84.966,11-7,0,0,7.741-7.7,6-19,0,0-.3-13.884-11-12C255,159,242.713,161.464,242,180Z" transform="translate(-137.781 -138.438)"/>
    <path class="cls-4" d="M255,186s9.867,17.69,30-3c0,0-18.722,17.937-29,1Z" transform="translate(-137.781 -138.438)"/>
    <path class="cls-3" d="M236,180s12.353,4.935,28-8c0,0,18.873-17,6-26,0,0-16.055-8.164-30,12C240,158,229.444,174.584,236,180Z" transform="translate(-137.781 -138.438)"/>
    <circle class="cls-8" cx="108.719" cy="29.062" r="1.5"/>
    <path class="cls-4" d="M252,187s-15.878,9.165-27-8c0,0,13.791,15.046,27,5v3Z" transform="translate(-137.781 -138.438)"/>
  </g>
</svg>
