<svg id="bussines.svg" xmlns="http://www.w3.org/2000/svg" width="219.031" height="226" viewBox="0 0 219.031 226">
  <defs>
    <style>
      .cls-1 {
        fill: #c5c5c5;
      }

      .cls-1, .cls-2, .cls-3, .cls-4, .cls-5, .cls-6, .cls-7, .cls-8 {
        fill-rule: evenodd;
      }

      .cls-2 {
        fill: #f7f7f7;
      }

      .cls-3 {
        fill: #1d0b00;
      }

      .cls-4 {
        fill: #511e00;
      }

      .cls-5 {
        fill: #ff3600;
      }

      .cls-6 {
        fill: #ff6000;
      }

      .cls-7 {
        fill: #fff1ad;
      }

      .cls-8 {
        fill: #4b589c;
      }
    </style>
  </defs>
  <path class="cls-1" d="M153.25,168.421s11.09-27.463,55.19-20.839c0,0,28.38,11.91,50.494,4.168,0,0,32.684-19.756,56.364-13.545s17.512,30.625,28.183,51.055,28.609,32.8,4.7,62.516-17.654,29.25-15.266,43.761,4.435,38-23.485,53.9-63.174-.925-77.5-11.182-32.866-7.461-50.494-4.168S119.707,307.478,153.25,274.7s24.363-36.792,21.137-43.761S139.457,205.931,153.25,168.421Z" transform="translate(-141 -137)"/>
  <path class="cls-2" d="M194,181.279l15.554,6.23,1.037,21.807-8.3,4.153-6.221-13.5Z" transform="translate(-141 -137)"/>
  <path class="cls-3" d="M288.359,312.118l7.258,8.307,5.185-35.306,6.221-5.192s-0.692-3.992-6.221-3.115C300.8,276.812,292.833,271.231,288.359,312.118Z" transform="translate(-141 -137)"/>
  <path class="cls-4" d="M295.617,320.425s-3.2-43.533,8.3-42.574c0,0,7.707-3.672,4.147,33.229C308.06,311.08,301.769,312.3,295.617,320.425Z" transform="translate(-141 -137)"/>
  <path class="cls-5" d="M285.248,255.006S291.77,304.132,271.768,363h-4.147s9.009-39.862-3.111-76.842Z" transform="translate(-141 -137)"/>
  <path class="cls-3" d="M267.621,363s14.345-7.269,17.627,0H267.621Z" transform="translate(-141 -137)"/>
  <path class="cls-6" d="M241.7,256.044s17.763,63.14,13.48,106.956H261.4s4.035-68.433,14.517-87.226c0,0,4.824-12,12.443-17.653C288.359,258.121,246.488,260.841,241.7,256.044Z" transform="translate(-141 -137)"/>
  <path class="cls-3" d="M254.141,363s4.922-6.343,9.332,0h-9.332Z" transform="translate(-141 -137)"/>
  <path class="cls-7" d="M249.993,177.125s-0.276,15.591,14.517,18.691a3.117,3.117,0,0,0,3.111-1.038s7.494-4.566,8.3-15.576c0,0-1.74-19.981-14.517-17.653C261.4,161.549,249.131,163.144,249.993,177.125Z" transform="translate(-141 -137)"/>
  <path class="cls-4" d="M249.993,181.279s-1.059-5.95-3.111-9.346c0,0-2.59-4.923,2.074-6.23,0,0,3.8-.435,4.148-3.116,0,0,2.657-8.4,13.48-6.23,0.689-.173,9.921.653,11.406,11.422,0,0-.117,3.3-2.074,16.615,0,0-2.536-1.087-2.074-5.192,0,0,1.24-11.641-4.147-7.269l-1.037,2.077s1.92-6.649-3.111-7.269c0,0-1.54-1.1-4.148,2.077,0,0-6.06,3.565-9.332,1.038C252.067,169.856,248.614,170.059,249.993,181.279Z" transform="translate(-141 -137)"/>
  <path class="cls-3" d="M272.805,174.01s2.522-2.527,3.111,1.038c0,0-1.441,9.582-7.258,11.423,0,0-2.36-.415-1.037-2.077H269.7s3.656-2.212,3.11-5.192C272.805,179.2,272.009,175.87,272.805,174.01Z" transform="translate(-141 -137)"/>
  <path class="cls-2" d="M252.067,202.047s27.28,1.214,36.292-1.039l-19.7,28.037Z" transform="translate(-141 -137)"/>
  <path class="cls-6" d="M265.547,202.047l1.037,3.115a14.542,14.542,0,0,0-2.074,10.384l4.148,8.307,4.147-8.307s-0.967-9.192-3.11-10.384l1.036-3.115h-5.184Z" transform="translate(-141 -137)"/>
  <path class="cls-8" d="M195.037,190.624s10.329,25.939,29.033,19.73c0,0,5.815-2.1,10.37-4.154,0,0,10.262-7.709,21.775-3.115,0,0,10.6,6.539,12.443,18.692,0,0,1.872-11.87,12.443-17.653,0,0,12.082-9.3,17.627,1.038,0,0,11.2,13.707,2.074,69.573,0,0-1.1-20.706-7.258-25.96,0,0-2.837-.011-3.111,5.192,0,0,2.206,7.625-19.7,8.307s-34.271-2.727-40.439-18.691-15.9-16.933-20.738-19.73S191,207.788,195.037,190.624Z" transform="translate(-141 -137)"/>
</svg>
