<svg id="intellect_new.svg" data-name="intellect new.svg" xmlns="http://www.w3.org/2000/svg" width="219.375" height="238.844" viewBox="0 0 219.375 238.844">
  <defs>
    <style>
      .cls-1 {
        fill: #c5c5c5;
      }

      .cls-1, .cls-2, .cls-3, .cls-4, .cls-5, .cls-6, .cls-7, .cls-9 {
        fill-rule: evenodd;
      }

      .cls-2, .cls-8 {
        fill: #1d0b00;
      }

      .cls-3 {
        fill: #511e00;
      }

      .cls-4 {
        fill: #ff6000;
      }

      .cls-5 {
        fill: #e4e4e4;
      }

      .cls-6 {
        fill: #fff;
      }

      .cls-7 {
        fill: #4b589c;
      }

      .cls-8 {
        font-size: 30px;
        text-anchor: middle;
        font-family: "Harvard Script";
      }

      .cls-9 {
        fill: #fff1ad;
      }
    </style>
  </defs>
  <path class="cls-1" d="M143.42,237.576s3.673-23.67,31.74-33.022c0,0,13.635-3.459,8.756-31.921s7.959-37.985,35.023-41.827c0,0,14.65-1.249,21.889,2.2s26.179,0.33,37.212-3.3c0,0,53.416-21.3,73.96,19.295s-7.719,71.016-14,78-10.66,28.337,1.252,45.994c9.569,14.183-4.116,47.015-53.551,53.741,0,0-28.742,3.913-54.723-18.712,0,0-9.815-6.154-29.551,0S125.72,303.738,143.42,237.576Z" transform="translate(-140 -124.156)"/>
  <path class="cls-2" d="M275.718,233.871c-0.028,0,1.612,96.411,36.117,128.785,4.589-.658-9.85,0-9.85,0s-14.293-13.26-26.267-39.626c0,0-12.876-38.075-30.646-30.82Z" transform="translate(-140 -124.156)"/>
  <path class="cls-3" d="M275.718,230.569s5.131,26.467-9.851,57.238c0,0-16.022,31.578-14.228,75.182h-7.661s-1.3-64.651-20.8-94.995Z" transform="translate(-140 -124.156)"/>
  <path class="cls-4" d="M240.694,362.989s5.887-10.674,14.229,0H240.694Z" transform="translate(-140 -124.156)"/>
  <path class="cls-4" d="M299.8,362.989s15.8-10.674,21.889,0H299.8Z" transform="translate(-140 -124.156)"/>
  <path class="cls-5" d="M164,237v8l10,18,18.06-10.145,10.9-9.011-1.613-4.171Z" transform="translate(-140 -124.156)"/>
  <path class="cls-6" d="M174.569,257.222s8.526-11.411,16.685-6.453c0,0,5.092-11.547,11.088-11L190.723,224.6s-6.517,1.167-10.9,9.011a19.9,19.9,0,0,0-15.4,3.561Z" transform="translate(-140 -124.156)"/>
  <path class="cls-7" d="M211.144,239.375s29.222-41.753,52.534-53.936c0,0,14.939-8.839,30.646-19.813,0,0-19.45,23.778-17.512,48.432s-14.857,51.233-26.267,56.137S218.9,274.738,216,256Z" transform="translate(-140 -124.156)"/>
  <path class="cls-7" d="M226,222s-6.832,9.507-23,19c0,0-12.117,3.938-16,3,0,0,8.178,7.527,19,9a23.573,23.573,0,0,1,14,13Z" transform="translate(-140 -124.156)"/>
  <text id="E_" data-name="E=?" class="cls-8" transform="matrix(0.359, -0.168, 0.167, 0.361, 155.791, 31.87)">E=?</text>
  <g>
    <path class="cls-9" d="M214.838,184.054s-1.805-6.549,12.121-9.938c0,0,15.22-1.577,20.361,20.478,0,0,1.506,9.96-20.98,7.063S214.838,184.054,214.838,184.054Z" transform="translate(-140 -124.156)"/>
    <path class="cls-6" d="M216.849,187.97s1.705,10.212,9.865,4.833l0.535,3.438s-3.883-1.436-3.894,2c0,0,6.605,4.226,8.826.416l4.429,1.437s-4.656,14.518-18.5,9.5c0,0-2.916-1.69-4.493-6.354a10.973,10.973,0,0,0-2.985-3.417,3.779,3.779,0,0,1-1.038-4.416s2.547-2.817,1.412-4.438a6.881,6.881,0,0,1,.374-8.854s6.849-11.006,15.577-8C226.959,174.116,215.811,178.163,216.849,187.97Z" transform="translate(-140 -124.156)"/>
    <path class="cls-2" d="M237.449,192.352s9.157,0.891,7.254-7.437Z" transform="translate(-140 -124.156)"/>
    <path class="cls-4" d="M242.658,188.327s3-1.56,4.429,1.437c0,0,3.763,4.7-1.444,1.979,0,0-3.369-2.742-6.376-.437Z" transform="translate(-140 -124.156)"/>
    <path class="cls-6" d="M237.854,195.743s-2.08-2.5-2.011-3.916c0.147-3.015,3.613-7.936,8.7-9.417l2.482,2.437S239.6,189.679,237.854,195.743Z" transform="translate(-140 -124.156)"/>
  </g>
</svg>
