<svg id="new_yaar.svg" data-name="new yaar.svg" xmlns="http://www.w3.org/2000/svg" width="211.406" height="230" viewBox="0 0 211.406 230">
  <defs>
    <style>
      .cls-1 {
        fill: #c5c5c5;
      }

      .cls-1, .cls-10, .cls-2, .cls-3, .cls-4, .cls-5, .cls-6, .cls-7, .cls-8, .cls-9 {
        fill-rule: evenodd;
      }

      .cls-2 {
        fill: #4b589c;
      }

      .cls-3 {
        fill: #511e00;
      }

      .cls-4 {
        fill: #1d0b00;
      }

      .cls-5 {
        fill: #ff3600;
      }

      .cls-6 {
        fill: #fff;
      }

      .cls-7 {
        fill: #fff1ad;
      }

      .cls-8 {
        fill: #ff6000;
      }

      .cls-9 {
        fill: #fae682;
      }

      .cls-10 {
        fill: #f7f7f7;
      }

      .cls-11 {
        fill: #e4e4e4;
      }
    </style>
  </defs>
  <path class="cls-1" d="M146,220s-12.884-47.39,31-60c0,0,21.635-6.257,43-1,0,0,28.795,9.731,55-16,0,0,26.863-16.084,43,6,0,0,14.779,27.329,1,48,0,0-4.349,26.06,7,32,0,0,25.43,20.141,21,53,0,0-5.064,19.936-18,27,0,0-14.582,2.952-24,3s-14.108.683-21,9-34.506,38.381-96-14c0,0-13.807-7.016-25-5,0,0-32.775,9.076-26-31,0,0,1.193-7.586,8-16C145,255,155,232.45,146,220Z" transform="translate(-136.094 -126)"/>
  <path class="cls-2" d="M243,146s-3.032,24.458-19,32c0,0-16.538,6.016-3,12,0,0,15.072,11.518-12,21s-2,1-2,1l11,63s31.165,14.382,61-3l-1-60-9-22s11.643-5.368-5-12c0,0-18.382-11.695-19-33Z" transform="translate(-136.094 -126)"/>
  <g>
    <path class="cls-3" d="M271,212s0.285-6.37-11-7c0,0-9.352-6.232-1-12,0,0,10.649-1.377,11-7,0,0-2.776-15.237,5-16,0,0,7.44-3.518,12,6a9.431,9.431,0,0,0,8,2s9.231-3.446,12,3c0,0-3.622,4.626,6,8,0,0,14.232,7.919,7,17,0,0-12.423,16.134-32,14Z" transform="translate(-136.094 -126)"/>
    <path class="cls-4" d="M230,251s-3.21,72.509-24,98h-6s20.076-61.863,4-94Z" transform="translate(-136.094 -126)"/>
    <path class="cls-3" d="M194,251s7.05,76.707-18,104h10s32.247-60.33,41-102Z" transform="translate(-136.094 -126)"/>
    <path class="cls-5" d="M187,217s-1.877,48.216,27,44c0,0,21.406.349,17-25Z" transform="translate(-136.094 -126)"/>
    <path class="cls-6" d="M289,224s-8.313,16.467-5,27l-12,7s-6.374-13.414-13-18Z" transform="translate(-136.094 -126)"/>
    <path class="cls-6" d="M241,224s16.81,6.543,28-9c0,0,6.189-10.74,17-5,0,0,8.559,6.784-1,20,0,0-10.59,12.141-25,12C260,242,244.392,239.943,241,224Z" transform="translate(-136.094 -126)"/>
    <path class="cls-7" d="M191,192l3,12,7-3-2-10-8-1v2Z" transform="translate(-136.094 -126)"/>
    <path class="cls-7" d="M275,202l1,7h6s-2.8-7.444,0-11Z" transform="translate(-136.094 -126)"/>
    <path class="cls-8" d="M190,203s5.243-8.6,16-2c0,0,4.027,5.331,4,8,0,0,10.912,29.472,28,12,0,0-1.012,26.018-23,27,0,0-22.479,2.952-28-25A41.454,41.454,0,0,1,190,203Z" transform="translate(-136.094 -126)"/>
    <path class="cls-9" d="M294,298s-0.162,37.7,7,55l-18-39Z" transform="translate(-136.094 -126)"/>
    <path class="cls-7" d="M279,313s7.8,27.9,24,43h1s-13.278-16.961-16-53Z" transform="translate(-136.094 -126)"/>
    <path class="cls-8" d="M176,355s17.115-11.011,23,0H176Z" transform="translate(-136.094 -126)"/>
    <path id="Shape_51_copy" data-name="Shape 51 copy" class="cls-5" d="M199,349s17.115-11.011,23,0H199Z" transform="translate(-136.094 -126)"/>
    <path class="cls-4" d="M297,343l2,13h5Z" transform="translate(-136.094 -126)"/>
    <path class="cls-7" d="M199,172s5.843,8.769,4,15c0,0,.484,5.912-4,5,0,0-14.448,2.548-16-10C183,182,188.289,162.574,199,172Z" transform="translate(-136.094 -126)"/>
    <path class="cls-7" d="M271,182a27.868,27.868,0,0,0-2,20s1.509,3.344,7,2c0,0,9.368-4.375,9-11C285,193,283.737,174.054,271,182Z" transform="translate(-136.094 -126)"/>
    <path class="cls-7" d="M284,190s4.868-1.7,3,3c0,0-1.067,3.688-4,4Z" transform="translate(-136.094 -126)"/>
    <path class="cls-10" d="M189,192s-2.522-4.305-9-7c0,0-4.519-3.379-1-7,0,0-3.8-8.024,5-10,0,0,7.056-.382,9-3,0,0,3.272-4.167,7-2,0,0,5.841,3.766-1,11,0,0-5.519,3.479-11,3,0,0-4.159.981,0,4,0,0-6.015.554,1,5C189,186,192.213,190.286,189,192Z" transform="translate(-136.094 -126)"/>
    <path class="cls-10" d="M233,199s-0.848,20,3,20,3-20,3-20h-6Z" transform="translate(-136.094 -126)"/>
    <ellipse class="cls-11" cx="99.906" cy="72.5" rx="3" ry="1.5"/>
    <path class="cls-7" d="M233,207a4.234,4.234,0,0,0,6,0s-0.211,12-3,12S233,207,233,207Z" transform="translate(-136.094 -126)"/>
    <path id="Shape_60_copy" data-name="Shape 60 copy" class="cls-10" d="M241,202s-0.848,20,3,20,3-20,3-20h-6Z" transform="translate(-136.094 -126)"/>
    <ellipse id="Ellipse_2_copy" data-name="Ellipse 2 copy" class="cls-11" cx="107.906" cy="75.5" rx="3" ry="1.5"/>
    <path id="Shape_61_copy" data-name="Shape 61 copy" class="cls-7" d="M241,210a4.234,4.234,0,0,0,6,0s-0.211,12-3,12S241,210,241,210Z" transform="translate(-136.094 -126)"/>
    <path class="cls-8" d="M284,251s-42.847,8.17-14,66c0,0,10.263,9.559,26-16S295.194,244.894,284,251Z" transform="translate(-136.094 -126)"/>
    <path id="Ellipse_3_copy_8" data-name="Ellipse 3 copy 8" class="cls-7" d="M221.5,189a1.5,1.5,0,1,1-1.5,1.5A1.5,1.5,0,0,1,221.5,189Zm10-3a1.5,1.5,0,1,1-1.5,1.5A1.5,1.5,0,0,1,231.5,186Zm11-6a1.5,1.5,0,1,1-1.5,1.5A1.5,1.5,0,0,1,242.5,180Zm6-8a1.5,1.5,0,1,1-1.5,1.5A1.5,1.5,0,0,1,248.5,172Zm-5-8a1.5,1.5,0,1,1-1.5,1.5A1.5,1.5,0,0,1,243.5,164Zm-3,30a1.5,1.5,0,1,1-1.5,1.5A1.5,1.5,0,0,1,240.5,194Zm10,9a1.5,1.5,0,1,1-1.5,1.5A1.5,1.5,0,0,1,250.5,203Zm-24,13a1.5,1.5,0,1,1-1.5,1.5A1.5,1.5,0,0,1,226.5,216Zm13,29a1.5,1.5,0,1,1-1.5,1.5A1.5,1.5,0,0,1,239.5,245Zm12,10a1.5,1.5,0,1,1-1.5,1.5A1.5,1.5,0,0,1,251.5,255Zm12,7a1.5,1.5,0,1,1-1.5,1.5A1.5,1.5,0,0,1,263.5,262Zm-23-106a1.5,1.5,0,1,1-1.5,1.5A1.5,1.5,0,0,1,240.5,156Zm15,22a1.5,1.5,0,1,1-1.5,1.5A1.5,1.5,0,0,1,255.5,178Zm8,7a1.5,1.5,0,1,1-1.5,1.5A1.5,1.5,0,0,1,263.5,185Z" transform="translate(-136.094 -126)"/>
    <path class="cls-5" d="M242,148v-3s-3.842-2.3-2-6a40.906,40.906,0,0,0,3-13h1s1.229,10.292,3,13c0,0,1.9,4.152-2,6v3h-3Z" transform="translate(-136.094 -126)"/>
  </g>
</svg>
