<?xml version="1.0" encoding="utf-8"?>
<!-- Generator: Adobe Illustrator 21.0.0, SVG Export Plug-In . SVG Version: 6.00 Build 0)  -->
<svg version="1.1" id="logo.svg_1_" xmlns="http://www.w3.org/2000/svg" xmlns:xlink="http://www.w3.org/1999/xlink" x="0px"
	 y="0px" viewBox="0 0 463 73" style="enable-background:new 0 0 463 73;" xml:space="preserve">
<style type="text/css">
	.st0{fill-rule:evenodd;clip-rule:evenodd;fill:#FFFAE2;}
	.st1{fill:#FFFAE2;}
</style>
<g id="lis_event_1_">
	<g id="l">
		<g>
			<path class="st0" d="M423,0v11h40V0H423z M435,44h16V15h-16V44z M372,44h14V29L372,8V44z M403,15l14,21V0h-14V15z M372,0l29,44
				h16L388,0H372z M342,11h22V0h-22V11z M342,44h22V33h-22V44z M352,15h-14V0h-16v44h16V29h14V15z M269,0l17,44h15L285,0H269z
				 M297,18l7,20l15-38h-16L297,18z M244,11h22V0h-22V11z M244,44h22V33h-22V44z M254,15h-14V0h-16v44h16V29h14V15z M153,10l30,34
				c0,0,10,0,10-12L165,0C165,0,153-1.8,153,10z M181,0h-10l12,13h10C193,13,194.7,0,181,0z M153.1,31c0,0-1.7,13,12,13h10l-12-13
				H153.1z M128,11h16V0h-16V11z M128,44h16V15h-16V44z M80,44h16V0H80V44z M100,44h20V30h-20V44z"/>
		</g>
	</g>
</g>
<g id="Лаборатория_интересных_событий">
	<g>
		<path class="st1" d="M93.4,55.4v14h-1.5V56.7h-7.1l-0.2,4.7c-0.1,1.9-0.2,3.5-0.5,4.7c-0.3,1.2-0.7,2.1-1.2,2.6
			c-0.5,0.6-1.2,0.9-2.1,0.9c-0.4,0-0.8,0-1.2-0.1l0.1-1.3c0.2,0.1,0.5,0.1,0.7,0.1c0.6,0,1.1-0.2,1.5-0.7c0.4-0.5,0.7-1.2,0.9-2.2
			c0.2-1,0.3-2.3,0.4-3.9l0.2-6H93.4z"/>
		<path class="st1" d="M105.1,59.8c0.8,0.7,1.2,1.7,1.2,3v6.5h-1.4v-1.6c-0.3,0.5-0.8,1-1.5,1.3c-0.7,0.3-1.4,0.5-2.3,0.5
			c-1.2,0-2.2-0.3-2.9-0.8c-0.7-0.6-1.1-1.3-1.1-2.2c0-0.9,0.3-1.6,1-2.2c0.7-0.5,1.8-0.8,3.2-0.8h3.5v-0.6c0-0.9-0.3-1.6-0.8-2.1
			c-0.5-0.5-1.3-0.7-2.3-0.7c-0.7,0-1.4,0.1-2,0.3c-0.6,0.2-1.2,0.5-1.7,0.9l-0.7-1.1c0.6-0.5,1.2-0.8,2-1s1.6-0.4,2.5-0.4
			C103.3,58.8,104.4,59.1,105.1,59.8z M103.5,67.8c0.6-0.4,1-0.9,1.3-1.6v-1.7h-3.5c-1.9,0-2.8,0.6-2.8,1.9c0,0.6,0.2,1.1,0.7,1.4
			c0.5,0.4,1.2,0.5,2.1,0.5C102.1,68.3,102.9,68.1,103.5,67.8z"/>
		<path class="st1" d="M118.4,59.8c0.8,0.4,1.4,1,1.9,1.8c0.4,0.8,0.7,1.7,0.7,2.7c0,1-0.2,1.9-0.7,2.7s-1.1,1.4-2,1.8
			c-0.8,0.4-1.8,0.7-2.9,0.7c-1.8,0-3.3-0.6-4.3-1.8c-1-1.2-1.5-2.9-1.5-5.1c0-2.2,0.5-4,1.4-5.2c0.9-1.2,2.3-2,4.2-2.4l5-1.1
			l0.3,1.3l-4.7,1c-1.6,0.3-2.7,0.9-3.5,1.8c-0.7,0.8-1.1,2.1-1.2,3.7c0.4-0.8,1.1-1.4,1.9-1.9s1.7-0.7,2.8-0.7
			C116.6,59.1,117.6,59.3,118.4,59.8z M117.5,67.8c0.6-0.3,1.1-0.8,1.4-1.4c0.3-0.6,0.5-1.3,0.5-2.1s-0.2-1.4-0.5-2
			c-0.3-0.6-0.8-1-1.4-1.4s-1.3-0.5-2.1-0.5c-0.8,0-1.5,0.2-2.1,0.5c-0.6,0.3-1.1,0.8-1.4,1.4c-0.3,0.6-0.5,1.3-0.5,2
			s0.2,1.5,0.5,2.1c0.3,0.6,0.8,1.1,1.4,1.4c0.6,0.3,1.3,0.5,2.1,0.5C116.2,68.3,116.9,68.1,117.5,67.8z"/>
		<path class="st1" d="M125.8,68.8c-0.9-0.5-1.5-1.1-2-1.9c-0.5-0.8-0.7-1.7-0.7-2.8c0-1,0.2-1.9,0.7-2.8c0.5-0.8,1.2-1.4,2-1.9
			c0.9-0.5,1.8-0.7,2.9-0.7c1.1,0,2,0.2,2.9,0.7c0.9,0.5,1.5,1.1,2,1.9s0.7,1.7,0.7,2.8c0,1-0.2,1.9-0.7,2.8c-0.5,0.8-1.2,1.4-2,1.9
			c-0.9,0.5-1.8,0.7-2.9,0.7C127.6,69.4,126.6,69.2,125.8,68.8z M130.8,67.7c0.6-0.3,1.1-0.8,1.5-1.4s0.5-1.3,0.5-2.1
			s-0.2-1.5-0.5-2.1c-0.4-0.6-0.8-1.1-1.5-1.4c-0.6-0.3-1.3-0.5-2.1-0.5c-0.8,0-1.5,0.2-2.1,0.5c-0.6,0.3-1.1,0.8-1.5,1.4
			c-0.4,0.6-0.5,1.3-0.5,2.1s0.2,1.5,0.5,2.1s0.8,1.1,1.5,1.4s1.3,0.5,2.1,0.5C129.4,68.2,130.2,68,130.8,67.7z"/>
		<path class="st1" d="M146,59.4c0.8,0.4,1.5,1.1,2,1.9c0.5,0.8,0.7,1.7,0.7,2.8c0,1.1-0.2,2-0.7,2.8c-0.5,0.8-1.1,1.4-2,1.9
			s-1.8,0.7-2.8,0.7c-0.9,0-1.7-0.2-2.4-0.5s-1.3-0.9-1.8-1.5v5.8h-1.5V58.9h1.4v2.1c0.4-0.7,1-1.2,1.8-1.6c0.7-0.4,1.6-0.6,2.5-0.6
			C144.2,58.8,145.1,59,146,59.4z M145.1,67.7c0.6-0.3,1.1-0.8,1.5-1.4c0.4-0.6,0.5-1.3,0.5-2.1s-0.2-1.5-0.5-2.1
			c-0.4-0.6-0.9-1.1-1.5-1.4c-0.6-0.3-1.3-0.5-2.1-0.5c-0.8,0-1.5,0.2-2.1,0.5c-0.6,0.3-1.1,0.8-1.5,1.4c-0.4,0.6-0.5,1.3-0.5,2.1
			s0.2,1.5,0.5,2.1s0.8,1.1,1.5,1.4s1.3,0.5,2.1,0.5C143.8,68.2,144.5,68,145.1,67.7z"/>
		<path class="st1" d="M158.9,59.8c0.8,0.7,1.2,1.7,1.2,3v6.5h-1.4v-1.6c-0.3,0.5-0.8,1-1.5,1.3c-0.7,0.3-1.4,0.5-2.3,0.5
			c-1.2,0-2.2-0.3-2.9-0.8c-0.7-0.6-1.1-1.3-1.1-2.2c0-0.9,0.3-1.6,1-2.2c0.7-0.5,1.8-0.8,3.2-0.8h3.5v-0.6c0-0.9-0.3-1.6-0.8-2.1
			c-0.5-0.5-1.3-0.7-2.3-0.7c-0.7,0-1.4,0.1-2,0.3c-0.6,0.2-1.2,0.5-1.7,0.9l-0.7-1.1c0.6-0.5,1.2-0.8,2-1s1.6-0.4,2.5-0.4
			C157,58.8,158.2,59.1,158.9,59.8z M157.2,67.8c0.6-0.4,1-0.9,1.3-1.6v-1.7h-3.5c-1.9,0-2.8,0.6-2.8,1.9c0,0.6,0.2,1.1,0.7,1.4
			s1.2,0.5,2.1,0.5C155.9,68.3,156.6,68.1,157.2,67.8z"/>
		<path class="st1" d="M171.8,60.1h-4.2v9.2h-1.5v-9.2H162v-1.3h9.8V60.1z"/>
		<path class="st1" d="M175.2,68.8c-0.9-0.5-1.5-1.1-2-1.9c-0.5-0.8-0.7-1.7-0.7-2.8c0-1,0.2-1.9,0.7-2.8c0.5-0.8,1.2-1.4,2-1.9
			c0.9-0.5,1.8-0.7,2.9-0.7c1.1,0,2,0.2,2.9,0.7c0.9,0.5,1.5,1.1,2,1.9s0.7,1.7,0.7,2.8c0,1-0.2,1.9-0.7,2.8c-0.5,0.8-1.2,1.4-2,1.9
			c-0.9,0.5-1.8,0.7-2.9,0.7C177,69.4,176,69.2,175.2,68.8z M180.1,67.7c0.6-0.3,1.1-0.8,1.5-1.4s0.5-1.3,0.5-2.1s-0.2-1.5-0.5-2.1
			c-0.4-0.6-0.8-1.1-1.5-1.4c-0.6-0.3-1.3-0.5-2.1-0.5c-0.8,0-1.5,0.2-2.1,0.5c-0.6,0.3-1.1,0.8-1.5,1.4c-0.4,0.6-0.5,1.3-0.5,2.1
			s0.2,1.5,0.5,2.1s0.8,1.1,1.5,1.4c0.6,0.3,1.3,0.5,2.1,0.5C178.8,68.2,179.5,68,180.1,67.7z"/>
		<path class="st1" d="M195.3,59.4c0.8,0.4,1.5,1.1,2,1.9c0.5,0.8,0.7,1.7,0.7,2.8c0,1.1-0.2,2-0.7,2.8c-0.5,0.8-1.1,1.4-2,1.9
			s-1.8,0.7-2.8,0.7c-0.9,0-1.7-0.2-2.4-0.5s-1.3-0.9-1.8-1.5v5.8h-1.5V58.9h1.4v2.1c0.4-0.7,1-1.2,1.8-1.6c0.7-0.4,1.6-0.6,2.5-0.6
			C193.6,58.8,194.5,59,195.3,59.4z M194.5,67.7c0.6-0.3,1.1-0.8,1.5-1.4c0.4-0.6,0.5-1.3,0.5-2.1s-0.2-1.5-0.5-2.1
			c-0.4-0.6-0.9-1.1-1.5-1.4c-0.6-0.3-1.3-0.5-2.1-0.5c-0.8,0-1.5,0.2-2.1,0.5c-0.6,0.3-1.1,0.8-1.5,1.4c-0.4,0.6-0.5,1.3-0.5,2.1
			s0.2,1.5,0.5,2.1s0.8,1.1,1.5,1.4s1.3,0.5,2.1,0.5C193.2,68.2,193.9,68,194.5,67.7z"/>
		<path class="st1" d="M201.2,58.9h1.5v8.3l7.4-8.3h1.3v10.5h-1.5V61l-7.4,8.3h-1.3V58.9z"/>
		<path class="st1" d="M224.2,58.9v10.5h-1.4v-3.5h-3.5h-0.4l-2.6,3.5h-1.6l2.8-3.7c-0.9-0.2-1.5-0.6-2-1.2
			c-0.5-0.5-0.7-1.2-0.7-2.1c0-1.2,0.4-2.1,1.3-2.7c0.8-0.6,2-0.9,3.4-0.9H224.2z M219.5,64.8h3.3v-4.7h-3.2c-2.2,0-3.2,0.8-3.2,2.4
			C216.3,64,217.4,64.8,219.5,64.8z"/>
		<path class="st1" d="M233.9,58.9h1.5v8.3l7.4-8.3h1.3v10.5h-1.5V61l-7.4,8.3h-1.3V58.9z"/>
		<path class="st1" d="M248.4,58.9h1.5v4.6h7v-4.6h1.5v10.5h-1.5v-4.6h-7v4.6h-1.5V58.9z"/>
		<path class="st1" d="M270.3,60.1h-4.2v9.2h-1.5v-9.2h-4.2v-1.3h9.8V60.1z"/>
		<path class="st1" d="M281.6,64.5h-9.2c0.1,1.1,0.5,2,1.3,2.6c0.8,0.7,1.8,1,3,1c0.7,0,1.3-0.1,1.9-0.3c0.6-0.2,1.1-0.6,1.5-1
			l0.8,0.9c-0.5,0.6-1.1,1-1.8,1.3c-0.7,0.3-1.5,0.4-2.4,0.4c-1.1,0-2.1-0.2-3-0.7s-1.6-1.1-2-1.9c-0.5-0.8-0.7-1.7-0.7-2.8
			c0-1,0.2-1.9,0.7-2.8c0.5-0.8,1.1-1.4,1.9-1.9c0.8-0.5,1.7-0.7,2.8-0.7c1,0,1.9,0.2,2.8,0.7c0.8,0.5,1.4,1.1,1.9,1.9
			c0.5,0.8,0.7,1.7,0.7,2.8L281.6,64.5z M273.6,61c-0.7,0.6-1.1,1.5-1.2,2.5h7.8c-0.1-1-0.5-1.9-1.2-2.5c-0.7-0.6-1.6-1-2.7-1
			C275.2,60,274.3,60.3,273.6,61z"/>
		<path class="st1" d="M293.5,59.4c0.8,0.4,1.5,1.1,2,1.9c0.5,0.8,0.7,1.7,0.7,2.8c0,1.1-0.2,2-0.7,2.8c-0.5,0.8-1.1,1.4-2,1.9
			s-1.8,0.7-2.8,0.7c-0.9,0-1.7-0.2-2.4-0.5c-0.7-0.4-1.3-0.9-1.8-1.5v5.8h-1.5V58.9h1.4v2.1c0.4-0.7,1-1.2,1.8-1.6
			c0.7-0.4,1.6-0.6,2.5-0.6C291.7,58.8,292.6,59,293.5,59.4z M292.6,67.7c0.6-0.3,1.1-0.8,1.5-1.4c0.4-0.6,0.5-1.3,0.5-2.1
			s-0.2-1.5-0.5-2.1c-0.4-0.6-0.9-1.1-1.5-1.4c-0.6-0.3-1.3-0.5-2.1-0.5c-0.8,0-1.5,0.2-2.1,0.5c-0.6,0.3-1.1,0.8-1.5,1.4
			c-0.4,0.6-0.5,1.3-0.5,2.1s0.2,1.5,0.5,2.1c0.4,0.6,0.8,1.1,1.5,1.4s1.3,0.5,2.1,0.5C291.3,68.2,292,68,292.6,67.7z"/>
		<path class="st1" d="M309,64.5h-9.2c0.1,1.1,0.5,2,1.3,2.6c0.8,0.7,1.8,1,3,1c0.7,0,1.3-0.1,1.9-0.3s1.1-0.6,1.5-1l0.8,0.9
			c-0.5,0.6-1.1,1-1.8,1.3c-0.7,0.3-1.5,0.4-2.4,0.4c-1.1,0-2.1-0.2-3-0.7s-1.6-1.1-2-1.9c-0.5-0.8-0.7-1.7-0.7-2.8
			c0-1,0.2-1.9,0.7-2.8s1.1-1.4,1.9-1.9c0.8-0.5,1.7-0.7,2.8-0.7c1,0,1.9,0.2,2.8,0.7c0.8,0.5,1.4,1.1,1.9,1.9s0.7,1.7,0.7,2.8
			L309,64.5z M301,61c-0.7,0.6-1.1,1.5-1.2,2.5h7.8c-0.1-1-0.5-1.9-1.2-2.5c-0.7-0.6-1.6-1-2.7-1C302.6,60,301.7,60.3,301,61z"/>
		<path class="st1" d="M314,68.8c-0.9-0.5-1.5-1.1-2-1.9c-0.5-0.8-0.7-1.7-0.7-2.8c0-1,0.2-1.9,0.7-2.8s1.2-1.4,2-1.9
			s1.8-0.7,2.9-0.7c1,0,1.8,0.2,2.6,0.5c0.7,0.4,1.3,0.9,1.8,1.5l-1.1,0.7c-0.4-0.5-0.8-0.9-1.4-1.2c-0.6-0.3-1.2-0.4-1.8-0.4
			c-0.8,0-1.5,0.2-2.2,0.5c-0.6,0.3-1.1,0.8-1.5,1.4c-0.4,0.6-0.5,1.3-0.5,2.1c0,0.8,0.2,1.5,0.5,2.1c0.4,0.6,0.9,1.1,1.5,1.4
			c0.6,0.3,1.4,0.5,2.2,0.5c0.7,0,1.3-0.1,1.8-0.4c0.6-0.3,1-0.6,1.4-1.2l1.1,0.7c-0.4,0.7-1,1.2-1.8,1.5s-1.6,0.5-2.5,0.5
			C315.9,69.4,314.9,69.2,314,68.8z"/>
		<path class="st1" d="M324.2,58.9h1.5v4.6h7v-4.6h1.5v10.5h-1.5v-4.6h-7v4.6h-1.5V58.9z"/>
		<path class="st1" d="M346.1,63.4c0.7,0.6,1.1,1.4,1.1,2.5c0,1.1-0.4,2-1.2,2.6c-0.8,0.6-1.9,0.9-3.4,0.9l-4.4,0V58.9h1.5v3.7
			l3.2,0C344.4,62.6,345.4,62.9,346.1,63.4z M344.9,67.7c0.5-0.4,0.8-1,0.8-1.8c0-0.8-0.3-1.3-0.8-1.7c-0.5-0.4-1.3-0.6-2.3-0.6
			l-2.8,0v4.7l2.8,0C343.6,68.3,344.4,68.1,344.9,67.7z M349.1,58.9h1.5v10.5h-1.5V58.9z"/>
		<path class="st1" d="M361.7,69.3l-3.5-4.4l-3.5,4.4H353l4.4-5.4l-4.2-5.1h1.7l3.3,4.1l3.3-4.1h1.6L359,64l4.4,5.4H361.7z"/>
		<path class="st1" d="M373,68.8c-0.9-0.5-1.5-1.1-2-1.9c-0.5-0.8-0.7-1.7-0.7-2.8c0-1,0.2-1.9,0.7-2.8c0.5-0.8,1.2-1.4,2-1.9
			c0.9-0.5,1.8-0.7,2.9-0.7c1,0,1.8,0.2,2.6,0.5s1.3,0.9,1.8,1.5l-1.1,0.7c-0.4-0.5-0.8-0.9-1.4-1.2c-0.6-0.3-1.2-0.4-1.8-0.4
			c-0.8,0-1.5,0.2-2.2,0.5c-0.6,0.3-1.1,0.8-1.5,1.4c-0.4,0.6-0.5,1.3-0.5,2.1c0,0.8,0.2,1.5,0.5,2.1c0.4,0.6,0.9,1.1,1.5,1.4
			s1.4,0.5,2.2,0.5c0.7,0,1.3-0.1,1.8-0.4s1-0.6,1.4-1.2l1.1,0.7c-0.4,0.7-1,1.2-1.8,1.5c-0.8,0.4-1.6,0.5-2.5,0.5
			C374.9,69.4,373.9,69.2,373,68.8z"/>
		<path class="st1" d="M384.7,68.8c-0.9-0.5-1.5-1.1-2-1.9c-0.5-0.8-0.7-1.7-0.7-2.8c0-1,0.2-1.9,0.7-2.8c0.5-0.8,1.2-1.4,2-1.9
			c0.9-0.5,1.8-0.7,2.9-0.7s2,0.2,2.9,0.7s1.5,1.1,2,1.9c0.5,0.8,0.7,1.7,0.7,2.8c0,1-0.2,1.9-0.7,2.8c-0.5,0.8-1.2,1.4-2,1.9
			s-1.8,0.7-2.9,0.7S385.5,69.2,384.7,68.8z M389.7,67.7c0.6-0.3,1.1-0.8,1.5-1.4c0.3-0.6,0.5-1.3,0.5-2.1s-0.2-1.5-0.5-2.1
			c-0.4-0.6-0.8-1.1-1.5-1.4c-0.6-0.3-1.3-0.5-2.1-0.5s-1.5,0.2-2.1,0.5c-0.6,0.3-1.1,0.8-1.5,1.4c-0.4,0.6-0.5,1.3-0.5,2.1
			s0.2,1.5,0.5,2.1c0.4,0.6,0.8,1.1,1.5,1.4s1.3,0.5,2.1,0.5S389,68,389.7,67.7z"/>
		<path class="st1" d="M404.4,59.8c0.8,0.4,1.4,1,1.9,1.8s0.7,1.7,0.7,2.7c0,1-0.2,1.9-0.7,2.7s-1.1,1.4-2,1.8
			c-0.8,0.4-1.8,0.7-2.9,0.7c-1.8,0-3.3-0.6-4.3-1.8s-1.5-2.9-1.5-5.1c0-2.2,0.5-4,1.4-5.2c0.9-1.2,2.3-2,4.2-2.4l5-1.1l0.3,1.3
			l-4.7,1c-1.6,0.3-2.7,0.9-3.5,1.8c-0.7,0.8-1.1,2.1-1.2,3.7c0.4-0.8,1.1-1.4,1.9-1.9c0.8-0.5,1.7-0.7,2.8-0.7
			C402.7,59.1,403.6,59.3,404.4,59.8z M403.5,67.8c0.6-0.3,1.1-0.8,1.4-1.4c0.3-0.6,0.5-1.3,0.5-2.1s-0.2-1.4-0.5-2
			c-0.3-0.6-0.8-1-1.4-1.4c-0.6-0.3-1.3-0.5-2.1-0.5s-1.5,0.2-2.1,0.5c-0.6,0.3-1.1,0.8-1.4,1.4c-0.3,0.6-0.5,1.3-0.5,2
			s0.2,1.5,0.5,2.1c0.3,0.6,0.8,1.1,1.4,1.4c0.6,0.3,1.3,0.5,2.1,0.5C402.2,68.3,402.9,68.1,403.5,67.8z"/>
		<path class="st1" d="M418,63.4c0.7,0.6,1.1,1.4,1.1,2.5c0,1.1-0.4,2-1.2,2.6c-0.8,0.6-1.9,0.9-3.4,0.9l-4.4,0V58.9h1.5v3.7l3.1,0
			C416.2,62.6,417.3,62.9,418,63.4z M416.8,67.7c0.5-0.4,0.8-1,0.8-1.8c0-0.8-0.3-1.3-0.8-1.7c-0.5-0.4-1.3-0.6-2.3-0.6l-2.8,0v4.7
			l2.8,0C415.5,68.3,416.3,68.1,416.8,67.7z M420.9,58.9h1.5v10.5h-1.5V58.9z"/>
		<path class="st1" d="M434.4,60.1h-4.2v9.2h-1.5v-9.2h-4.2v-1.3h9.8V60.1z"/>
		<path class="st1" d="M436.6,58.9h1.5v8.3l7.4-8.3h1.3v10.5h-1.5V61l-7.3,8.3h-1.3V58.9z"/>
		<path class="st1" d="M451.1,58.9h1.5v8.3l7.4-8.3h1.3v10.5h-1.5V61l-7.4,8.3h-1.3V58.9z M453.8,56.7c-0.6-0.5-0.8-1.1-0.9-1.9h1.1
			c0,0.5,0.2,0.9,0.6,1.2s0.9,0.5,1.5,0.5c0.6,0,1.1-0.2,1.5-0.5c0.4-0.3,0.6-0.7,0.6-1.2h1.1c0,0.8-0.3,1.5-0.9,1.9
			c-0.6,0.5-1.3,0.7-2.3,0.7C455.1,57.3,454.4,57.1,453.8,56.7z"/>
	</g>
</g>
<g id="fox_1_">
	<g id="Shape_3">
		<g>
			<path class="st0" d="M57.9,35.5C56.3,0.2,22.5,0,22.5,0C30.2,30.7,0,27.6,0,27.6C19.2,45.7,34,29,34,29c10,6.4,9.3,21,9.3,21
				c-4,20.5-18,22.7-20.4,23C26.7,72.6,59.5,68.8,57.9,35.5z M22.9,73c-0.2,0-0.4,0-0.4,0S22.6,73,22.9,73z M17.7,19.3
				c9.8-14.5-2.8-15.6-2.8-15.6C21,11.7,17.7,19.3,17.7,19.3z M15.5,43.5c12.6,3.4,21.5,14.1,7,29.3c0,0,16.9-10.7,8.2-24.4
				c0,0-4.1-5.8-13.8-7.4c0,0-11.4-2.3-16.9-13.4C0,27.6,2.9,40,15.5,43.5z"/>
		</g>
	</g>
</g>
</svg>
