<svg id="logo_white.svg" data-name="logo white.svg" xmlns="http://www.w3.org/2000/svg" width="789" height="223.031" viewBox="0 0 789 223.031">
  <defs>
    <style>
      .cls-1 {
        fill: #fff;
        fill-rule: evenodd;
      }
    </style>
  </defs>
  <g id="lis_event" data-name="lis event">
    <path id="t" class="cls-1" d="M701.071,258.818H795v25.8H701.071v-25.8Zm28.179,35.175h37.571V362H729.25V293.993Z" transform="translate(-6 -138.969)"/>
    <path id="n" class="cls-1" d="M581.312,362h32.875V326.824l-32.875-49.246V362Zm105.67-103.182H654.107v35.175l32.875,49.247V258.818Zm-105.67,0L649.411,362h37.571l-68.1-103.182H581.312Z" transform="translate(-6 -138.969)"/>
    <path id="e" class="cls-1" d="M463.9,258.818h37.571V362H463.9V258.818Zm46.964,0h51.661v25.8H510.866v-25.8Zm0,77.386h51.661V362H510.866V336.2Zm-9.393-42.211h32.875v32.831H501.473V293.993Z" transform="translate(-6 -138.969)"/>
    <path id="v" class="cls-1" d="M339.446,258.818h37.572L414.589,362H379.366Zm117.411,0H419.286L405.2,301.029l16.438,46.9Z" transform="translate(-6 -138.969)"/>
    <path id="e-2" data-name="e" class="cls-1" d="M233.777,258.818h37.571V362H233.777V258.818Zm46.964,0H332.4v25.8H280.741v-25.8Zm0,77.386H332.4V362H280.741V336.2Zm-9.393-42.211h32.875v32.831H271.348V293.993Z" transform="translate(-6 -138.969)"/>
    <path id="s" class="cls-1" d="M405.2,162.67L475.643,242.4s23.482,0,23.482-28.14l-65.75-75.042S405.2,134.947,405.2,162.67Zm42.268-23.45,28.179,30.486h23.482s4.024-30.486-28.179-30.486H447.464ZM456.857,242.4l-28.1-30.485H405.343s-4.013,30.485,28.1,30.485h23.416Z" transform="translate(-6 -138.969)"/>
    <path id="i" class="cls-1" d="M346.491,139.22h37.572v25.795H346.491V139.22Zm0,35.176h37.572V242.4H346.491V174.4Z" transform="translate(-6 -138.969)"/>
    <path id="l" class="cls-1" d="M233.777,139.22h37.571V242.4H233.777V139.22Zm46.964,70.351h46.964V242.4H280.741V209.571Z" transform="translate(-6 -138.969)"/>
  </g>
  <g id="fox">
    <path class="cls-1" d="M6,223.3s91.706,9.525,68.332-84.084c0,0,102.621.475,107.624,108.356S74.332,362,74.332,362s49.828-1.734,63.208-70.215c0,0,2.325-44.764-28.187-64.147C109.353,227.638,64.327,278.625,6,223.3Zm53.812-25.138s9.885-23.185-8.541-47.677C51.27,150.489,89.686,153.956,59.812,198.166ZM6,223.3s8.787,38.054,46.979,48.544,65.214,43.008,21.354,89.285c0,0,51.309-32.795,24.771-74.549,0,0-12.586-17.686-41.854-22.538C57.249,264.046,22.6,256.977,6,223.3Z" transform="translate(-6 -138.969)"/>
  </g>
</svg>
