<svg id="celebrate.svg" xmlns="http://www.w3.org/2000/svg" width="225.969" height="215.313" viewBox="0 0 225.969 215.313">
  <defs>
    <style>
      .cls-1 {
        fill: #c5c5c5;
      }

      .cls-1, .cls-2, .cls-3, .cls-4, .cls-5, .cls-6, .cls-7, .cls-8, .cls-9 {
        fill-rule: evenodd;
      }

      .cls-2 {
        fill: #fff1ad;
      }

      .cls-3 {
        fill: #1d0b00;
      }

      .cls-4 {
        fill: #fff;
      }

      .cls-5 {
        fill: #4b589c;
      }

      .cls-6 {
        fill: #ff6000;
      }

      .cls-7 {
        fill: #333f7a;
      }

      .cls-8 {
        fill: #511e00;
      }

      .cls-9 {
        fill: #fffae2;
      }
    </style>
  </defs>
  <path class="cls-1" d="M137,251.7s0-30.451,23.287-37.524c0,0,21.214-4.04,27.336-22.311,0,0,3.831-14.7,2.025-25.354,0,0,2.235-29.411,42.523-29.411,0,0,23.811-1.54,37.461,8.113,0,0,21.217,17.379,42.524,16.227,0,0,19.27-2.711,30.373,10.141s13.381,40.9-2.025,61.864,7.349,32.021,14.175,39.552,20.36,43.471-15.187,56.793-67.835-9.128-67.835-9.128-22.051-17.486-62.772-8.113S137,289.639,137,251.7Z" transform="translate(-137 -137)"/>
  <g id="girl">
    <path class="cls-2" d="M237,274s6.259,29.431,5,43c0,0-5.977,9.651-5,17,0,0,6.942-10.961,7-13,0,0,3.033,7.6,5,9,0,0-.846-12.945-4-16,0,0,1.107-39.977,11-58Z" transform="translate(-137 -137)"/>
    <path class="cls-3" d="M236,337l1-8,1,2,6-11,4,8v-5s2.691,8.692,2,12c0,0-4.952-5.066-6-10C244,325,239.593,335.065,236,337Z" transform="translate(-137 -137)"/>
    <path class="cls-2" d="M297,179l2.967,2.967L305,187v8h0l1-8,8-8H297Z" transform="translate(-137 -137)"/>
    <path class="cls-4" d="M300,182h11l-5,5h-1Z" transform="translate(-137 -137)"/>
    <path class="cls-3" d="M228,231s-4.269,16.589,7,35c0,0,3.023,10.418,3,14a90.962,90.962,0,0,0,18-23l11-25S239.056,221.326,228,231Z" transform="translate(-137 -137)"/>
    <path class="cls-5" d="M194,219s21.45-25.836,52-27c0,0,15.644-2.6,39,12,0,0,12.984,4.911,21-11,0,0-6.976,22.089-17,26,0,0-41.782,14.342-60,16Z" transform="translate(-137 -137)"/>
    <path class="cls-6" d="M225.319,183.584s-1.747-3.534,2.784-7.3c0,0,4.559-.994,5.569-7.3,0,0,.41-10,12.994-10.952,0,0,3.7-.663,9.281,4.563,0,0,6.806-1.575,8.353,1.825a9.886,9.886,0,0,1,.928,7.3,5.227,5.227,0,0,0,2.785,4.564s6.715,5.127,0,11.865a12.577,12.577,0,0,1-12.994,1.825s-5.724-5.879-14.85-1.825C240.169,188.148,227.139,194.769,225.319,183.584Z" transform="translate(-137 -137)"/>
    <path class="cls-2" d="M241.1,176.283s0.085,10.612,6.5,13.69c0,0,7,.913,11.137-10.952,0,0,1.82-4.01-1.856-9.127a16.772,16.772,0,0,1-2.784-3.651s-3.773,2.45-6.5,2.738C247.594,168.981,240.828,168.884,241.1,176.283Z" transform="translate(-137 -137)"/>
  </g>
  <g id="man_1" data-name="man 1">
    <path class="cls-7" d="M229,248s-6.092,87.2,4,104.3h-6s-4.513-74.461-35-94.3Z" transform="translate(-137 -137)"/>
    <path class="cls-5" d="M226,251s-26.684,75.974-27,101.3h-6s10.053-72.54-2-96.3Z" transform="translate(-137 -137)"/>
    <path class="cls-3" d="M199,352.3H178S183.591,340.343,199,352.3Z" transform="translate(-137 -137)"/>
    <path class="cls-3" d="M224,352.3s6.9-6.1,13,0H224Z" transform="translate(-137 -137)"/>
    <path class="cls-2" d="M162,191s-7.793,13.178,3,17l-1-17h-2Zm4.86,0s8.18,13.178-1.86,17V191h1.86ZM164,191h1v22h0Z" transform="translate(-137 -137)"/>
    <path class="cls-6" d="M159,201h11s-0.264,6.983-6,7C164,208,159,208.025,159,201Z" transform="translate(-137 -137)"/>
    <path class="cls-2" d="M203,207s11.255,10.523,14-4c0,0,3.811-13.976-7-17,0,0-14.847-2.138-15,9C195,195,191.419,204.105,203,207Z" transform="translate(-137 -137)"/>
    <path class="cls-8" d="M200,199s-4.427-4.662,1-6c0,0,3.677-1.847,6,0,0,0,8.1,2.6,11-4,0,0,5.074-6.738-6-10a9.136,9.136,0,0,0-9,3s-1.2,4.056-8,6c0,0-4.88,1.368-4,10a13.577,13.577,0,0,0,13,11S193.206,199.05,200,199Z" transform="translate(-137 -137)"/>
    <path class="cls-4" d="M165,211a16.5,16.5,0,0,0,16,14s6.035,0.488,14-7c0,0,15.232-11.008,43-11,0,0,15.52-.817,30,0,0,0-24.728.326-31,22,0,0-3.14,29.119-26,32,0,0-20.811,7.011-31-15,0,0-3-8.728-7-12C173,234,160.148,228.251,165,211Z" transform="translate(-137 -137)"/>
  </g>
  <g id="man_2" data-name="man 2">
    <path class="cls-3" d="M254,252s13.149,67.723,7,99h4s-1.631-50.524,14-68Z" transform="translate(-137 -137)"/>
    <path class="cls-8" d="M258,257s22.584,45.158,32,95h4s-17.1-67.015,0-89Z" transform="translate(-137 -137)"/>
    <path class="cls-3" d="M290,352s14.187-7.813,22,0H290Z" transform="translate(-137 -137)"/>
    <path class="cls-3" d="M270,352s-4-10-14,0h14Z" transform="translate(-137 -137)"/>
    <path id="Shape_109_copy" data-name="Shape 109 copy" class="cls-2" d="M323,222s-10.249,10.4,7,23V222h-7Zm13.978,0S347.2,232.4,330,245V222h6.978Z" transform="translate(-137 -137)"/>
    <path class="cls-8" d="M320,229h20s1.864,11.846-10,16C330,245,318.429,241.325,320,229Z" transform="translate(-137 -137)"/>
    <path class="cls-4" d="M320,229l1-3h18l1,3H320Z" transform="translate(-137 -137)"/>
    <path class="cls-6" d="M226,208s36.776-8.7,69,12c0,0,8.488,7.116,12,10,0,0,6.159,7.768,14,6,0,0-15.5,6.814-20,16,0,0-5.9,21.666-30,13,0,0-23.361-4.774-24-33C247,232,248.1,215.278,226,208Z" transform="translate(-137 -137)"/>
    <path class="cls-2" d="M268,197s3.111-10.662,14-7c0,0,10.456,3.466,3,15,0,0-6.674,12.177-13,12l-7-6Z" transform="translate(-137 -137)"/>
    <path class="cls-8" d="M265,198s4.363-6.127,10,1c0,0,3.7,11.412,13,4a22.325,22.325,0,0,0-6,14s-1.147,7.843-14,4S265,198,265,198Z" transform="translate(-137 -137)"/>
    <path class="cls-9" d="M267.817,202.731s0.588-3.123,2.737-1.584c0,0,2.061,3.55,4.925,4.091C275.479,205.238,271.3,207.519,267.817,202.731Z" transform="translate(-137 -137)"/>
  </g>
</svg>
