<svg id="corporative.svg" xmlns="http://www.w3.org/2000/svg" width="220" height="228" viewBox="0 0 220 228">
  <defs>
    <style>
      .cls-1 {
        fill: #c5c5c5;
      }

      .cls-1, .cls-2, .cls-3, .cls-4, .cls-5, .cls-6, .cls-7, .cls-8, .cls-9 {
        fill-rule: evenodd;
      }

      .cls-2 {
        fill: #f7f7f7;
      }

      .cls-3 {
        fill: #e4e4e4;
      }

      .cls-4 {
        fill: #1d0b00;
      }

      .cls-5 {
        fill: #4b589c;
      }

      .cls-6 {
        fill: #fff1ad;
      }

      .cls-7 {
        fill: #511e00;
      }

      .cls-8 {
        fill: #ff6000;
      }

      .cls-9 {
        fill: #333f7a;
      }
    </style>
  </defs>
  <path id="bg" class="cls-1" d="M140.517,218.086s-7.068-27.631,30.828-39.8c0,0,22.557-10.962,30.827-29.283,0,0,36.542-39.945,72.934,15.017,0,0,24.963,41.147,64.663,52.559,0,0,24.662,6.007,19.55,34.539s-40,52.86-63.16,57.816-53.535-1.352-92.483,39.044c0,0-47.971,20.874-47.369-31.536s2.707-56.013-3.76-66.825S140.517,225.294,140.517,218.086Z" transform="translate(-140 -135)"/>
  <g id="boy">
    <path class="cls-2" d="M235.256,221.09S232.784,282.9,251.8,303.683h-5.263s-29.007-40.5-27.068-73.583Z" transform="translate(-140 -135)"/>
    <path class="cls-3" d="M224.916,228.049s-8.284,50.489,9.8,76.687l-6-.412s-28.8-41.951-21.493-82Z" transform="translate(-140 -135)"/>
    <path class="cls-4" d="M246.534,304.434s11.541-5.884,13.534,0H246.534Z" transform="translate(-140 -135)"/>
    <path id="Shape_18_copy" data-name="Shape 18 copy" class="cls-4" d="M228.489,305.185s11.54-5.884,13.534,0H228.489Z" transform="translate(-140 -135)"/>
    <path class="cls-5" d="M172.1,200.817s-2.235-17.964,48.873-26.28c0,0,36.435-4.732,62.407,5.256,0,0-37.72-1.683-41.354,21.774,0,0,1.59,22-19.549,29.284s-30.384-7.266-27.821-19.523C194.653,211.328,202.9,182.372,172.1,200.817Z" transform="translate(-140 -135)"/>
    <path class="cls-6" d="M205.85,170.691s2.936,13.393,12.8,15.766c0,0,2.73.967,6.85-2.582,0,0,7.82-9.539.4-21.752C225.906,162.123,211.266,155.109,205.85,170.691Z" transform="translate(-140 -135)"/>
    <path class="cls-2" d="M211.769,165.243s5.309-3.517,8.745-1.37c0,0,7.762,2.313,9.479-3.6,1.736-5.986-2.244-8.773-7.461-8.732-7.95.063-21.045,1.982-20.36,17.742,0,0,1.487,8.529,6.906,8.981,0,0-7.111-10.164,2.018-8.222A3.562,3.562,0,0,1,211.769,165.243Z" transform="translate(-140 -135)"/>
  </g>
  <g id="girl_1" data-name="girl 1">
    <path class="cls-4" d="M181.871,287.164s1.447,44.582,28.572,72.833h6.015s-26.435-65.612-16.541-79.59Z" transform="translate(-140 -135)"/>
    <path id="Shape_6_copy" data-name="Shape 6 copy" class="cls-4" d="M208.939,360s14.021-6.778,16.542,0H208.939Z" transform="translate(-140 -135)"/>
    <path class="cls-7" d="M184.127,287.915s8.054,50.811,45.114,75.085h6.767s-29.416-55.055-18.8-87.849Z" transform="translate(-140 -135)"/>
    <path class="cls-4" d="M229.241,363s18.481-7.254,21.8,0h-21.8Z" transform="translate(-140 -135)"/>
    <path class="cls-8" d="M175.1,192.557s-11.9,34.267,47.37,37.543c0,0,22.362,1.955,50.377-4.5,0,0-35.988,8.259-48.874,40.545,0,0-10.008,25.568-38.346,25.529,0,0-18.435,1.476-9.775-21.774,0,0,10.2-25.089,3.759-36.792C179.615,233.1,161.353,204.07,175.1,192.557Z" transform="translate(-140 -135)"/>
    <path class="cls-6" d="M216.458,204.571a20.727,20.727,0,0,1,4.512,15.017s0.221,5.09-5.264,4.5c0,0-15.764.79-15.789-14.266C199.917,209.827,205.759,197.571,216.458,204.571Z" transform="translate(-140 -135)"/>
    <path class="cls-7" d="M198.413,195.561s-14.118,2.511-15.79,11.262c0,0-.463,4.089,1.5,6.758,0,0,4.182,5.183,2.256,6.758s-2.576,2.275-3.008,4.5,1.414,3.634,2.256,4.5,2.713,3.339-2.256,6.007c0,0-7.425,7.212,3.759,16.518,0,0,11.545,7.064,29.324-.751,0,0,6.914-5.775.752-11.262,0,0-5.037-1.844-1.5-8.26,0,0,3.92-4.674-1.5-9.761,0,0-9.2-8.278-2.256-14.266,0,0,11.686-6.194,0-10.512C211.947,197.062,208.743,195.376,198.413,195.561Z" transform="translate(-140 -135)"/>
  </g>
  <g id="girl_2" data-name="girl 2">
    <path class="cls-9" d="M317.212,262.386s-9.094,50.706-35.339,77.338h-3.007s21.381-41.823,20.3-66.826Z" transform="translate(-140 -135)"/>
    <path id="Shape_12_copy" data-name="Shape 12 copy" class="cls-4" d="M283.377,339.724s-10.04-5.958-16.542,0h16.542Z" transform="translate(-140 -135)"/>
    <path class="cls-5" d="M286.385,273.649s-3.35,52.781-26.317,71.331h6.767s45.354-43.811,49.626-80.341Z" transform="translate(-140 -135)"/>
    <path class="cls-4" d="M266.835,344.98s-10.04-5.958-16.541,0h16.541Z" transform="translate(-140 -135)"/>
    <path class="cls-2" d="M239.015,230.1s41.784-1.079,56.392-20.273c0,0-3.467-31.858-32.331-35.29,0,0,40.65-4.749,56.392,56.314,0,0,7.776,33.659-15.038,45.8,0,0-24.365,9.818-25.564-18.771C278.866,257.881,283.422,234.045,239.015,230.1Z" transform="translate(-140 -135)"/>
    <path id="Shape_3_copy" data-name="Shape 3 copy" class="cls-6" d="M281.787,195.117a20.858,20.858,0,0,0,2.445,15.511s2,4.7,6.671,1.823c0,0,14.489-6.032,8-19.659C298.9,192.792,288.361,184.209,281.787,195.117Z" transform="translate(-140 -135)"/>
    <path class="cls-8" d="M278.866,186.55s-4.136,10.346,6.767,8.26c0,0,12.6,3.549,11.278,10.512,0,0-2.369,3.724.752,6.757,0,0,3.69,2.442,3.76,4.5,0,0-3.44,11.244,7.519,9.011,0,0,10.95-1.734,9.774-9.761,0,0,.752-3.724-6.767-3.755,0,0-5,.064-3.007-3.754,0,0,12.169-13.04,0-23.276C308.942,185.049,300.342,175.474,278.866,186.55Z" transform="translate(-140 -135)"/>
    <path class="cls-4" d="M298.415,212.83l9.775-3.754s2.861,1.943,1.5,3.754l-8.27,3.754S297.707,217.072,298.415,212.83Z" transform="translate(-140 -135)"/>
  </g>
</svg>
