<svg id="gurman.svg" xmlns="http://www.w3.org/2000/svg" width="227.187" height="232.812" viewBox="0 0 227.187 232.812">
  <defs>
    <style>
      .cls-1 {
        fill: #c5c5c5;
      }

      .cls-1, .cls-10, .cls-2, .cls-3, .cls-4, .cls-5, .cls-6, .cls-7, .cls-8, .cls-9 {
        fill-rule: evenodd;
      }

      .cls-2 {
        fill: #1d0b00;
      }

      .cls-3 {
        fill: #ff6000;
      }

      .cls-4 {
        fill: #ff3600;
      }

      .cls-5 {
        fill: #f5f5f5;
      }

      .cls-6 {
        fill: #fae682;
      }

      .cls-7 {
        fill: #fff1ad;
      }

      .cls-8 {
        fill: #4b589c;
      }

      .cls-9 {
        fill: #fff;
      }

      .cls-10 {
        fill: #f7f7f7;
      }
    </style>
  </defs>
  <path id="bg" class="cls-1" d="M137,223s0.66-17.131,28-26c0,0,37.205-10,55-35,0,0,24.145-44.145,74-25,0,0,25.293,13.088,26,42,0,0-8.583,33.313,19,49,0,0,23,8.657,23,45s-26,67.987-73,69c0,0-31.114-2.811-46-11,0,0-3.549-4.121-25,1s-50.249,17.276-55-17-12-32.572-19-41C144,274,129.424,255.828,137,223Z" transform="translate(-134.813 -132.188)"/>
  <g id="chear">
    <path class="cls-2" d="M268,305l7,25V301Z" transform="translate(-134.813 -132.188)"/>
    <path id="Shape_30_copy_2" data-name="Shape 30 copy 2" class="cls-2" d="M291.7,286.075l12.516,22.745L297.6,280.584Z" transform="translate(-134.813 -132.188)"/>
    <path id="Shape_30_copy" data-name="Shape 30 copy" class="cls-2" d="M227.29,297.46l-3.113,25.774,11.112-26.786Z" transform="translate(-134.813 -132.188)"/>
    <path class="cls-3" d="M260,222s42.133-22.015,53,11c0,0,17.58,52.912-49,74,0,0-41.743,9.591-50-17C214,290,200.649,250.083,260,222Z" transform="translate(-134.813 -132.188)"/>
    <path class="cls-4" d="M235,294c1.958,0.911,32.3,10.346,58-17,0,0,32.2-40.444,3-58,0,0-31.083-16.894-80.726,47.9C215.274,266.9,209.728,282.242,235,294Z" transform="translate(-134.813 -132.188)"/>
  </g>
  <g id="girl">
    <path class="cls-5" d="M202,269s14.032-7.294,34,1c0,0,22.8,8.306,31,2,0,0,6.63,21.6-19,25,0,0-12.454-1.356-17-6,0,0-12.369-4.712-15,1C216,292,213.494,264.137,202,269Z" transform="translate(-134.813 -132.188)"/>
    <path class="cls-2" d="M223,341l-3-20s5.611,9.619,9,29A14.174,14.174,0,0,1,223,341Z" transform="translate(-134.813 -132.188)"/>
    <path id="Shape_27_copy" data-name="Shape 27 copy" class="cls-2" d="M222,356l-3-20s5.611,9.619,9,29A14.174,14.174,0,0,1,222,356Z" transform="translate(-134.813 -132.188)"/>
    <path class="cls-6" d="M198,285s-6.469,2.475-1,17,27,53,27,53-11.358-31.663-10-42C214,313,207.971,277.461,198,285Z" transform="translate(-134.813 -132.188)"/>
    <path class="cls-7" d="M225,346s-35.851-72.259-21-78c0,0,11.372-2.307,13,29C217,297,219.163,324.356,225,346Z" transform="translate(-134.813 -132.188)"/>
    <path class="cls-8" d="M172,238s10.162-1.338,18,2c0,0,12.828,2.805,18-10,0,0,1.767-14.714,9-12,0,0,22.568.336,33-3a17.12,17.12,0,0,1,14,5s7.523,6.151,6-7c0,0-8.007-12.52-2-20l4-4s-5.308,7.336,3,15c0,0,27.606,24.289,3,43,0,0-8.258,5.747-6,16,0,0,1.394,12-12,11,0,0-31.9,2.443-42-16,0,0-.592-5.9-10-4,0,0-15,2.728-20-9C188,245,184.821,240.011,172,238Z" transform="translate(-134.813 -132.188)"/>
    <path class="cls-9" d="M164,227s-0.766,8.7,10,9c0,0,10,.436,10-9H164Z" transform="translate(-134.813 -132.188)"/>
    <path class="cls-2" d="M249,199l1,1,47-23-1-2Z" transform="translate(-134.813 -132.188)"/>
    <path class="cls-7" d="M221,198s2.646,14.375,11,15c0,0,11.024.8,12-23C244,190,227.23,178.305,221,198Z" transform="translate(-134.813 -132.188)"/>
    <path class="cls-3" d="M192,211s7,13.27,33-2c0,0,47.206-32.158,36-62,0,0-6.181-18.026-34-1C203,160.689,182.354,197.535,192,211Z" transform="translate(-134.813 -132.188)"/>
    <path id="Shape_23_copy" data-name="Shape 23 copy" class="cls-10" d="M194.2,210.114s6.393,12.133,30.158-1.828c0,0,40.272-26.169,32.9-56.686,0,0-7.457-14.6-31.072-.914C203.933,163.582,185.383,197.8,194.2,210.114Z" transform="translate(-134.813 -132.188)"/>
    <path id="Shape_23_copy_2" data-name="Shape 23 copy 2" class="cls-8" d="M213.82,190.26s2.317,4.321,10.93-.652c0,0,14.6-9.321,11.924-20.19,0,0-2.7-5.2-11.261-.326C217.348,173.685,210.625,185.875,213.82,190.26Z" transform="translate(-134.813 -132.188)"/>
  </g>
</svg>
