<svg id="intellect_old.svg" data-name="intellect old.svg" xmlns="http://www.w3.org/2000/svg" width="221.781" height="223.844" viewBox="0 0 221.781 223.844">
  <defs>
    <style>
      .cls-1 {
        fill: #c5c5c5;
      }

      .cls-1, .cls-10, .cls-2, .cls-3, .cls-4, .cls-5, .cls-6, .cls-7, .cls-9 {
        fill-rule: evenodd;
      }

      .cls-2 {
        fill: #e4e4e4;
      }

      .cls-3, .cls-8 {
        fill: #ff3600;
      }

      .cls-4 {
        fill: #1d0b00;
      }

      .cls-5 {
        fill: #511e00;
      }

      .cls-6 {
        fill: #ff6000;
      }

      .cls-7 {
        fill: #fff1ad;
      }

      .cls-9 {
        fill: #4b589c;
      }

      .cls-10 {
        fill: #f7f7f7;
      }
    </style>
  </defs>
  <path class="cls-1" d="M137,196s0.7-54.073,56-55c0,0,18.837,1.521,33,12,0,0,10.735,5.768,25,1-0.05-.207,23.982-17,40.092-15.788,4.066,0.206,8.742,2.9,10.908,13.788,0,0,8,39.37,34,49,0,0,30.307,6.669,21,38,0,0-4.6,22.153-29,32,0,0-21.758,3.575-28,33,0,0-5.114,52.452-41,49s-43.708-18.045-54-40c0,0-17.038-17.988-33-12,0,0-24.915,3.806-24-18a39.155,39.155,0,0,1,17-33s14-8.969-7-15S137,196,137,196Z" transform="translate(-137 -138.156)"/>
  <path class="cls-2" d="M246,209s-2.243,5.623,7,6c0,0,6.6.985,7,7,0,0,3.954,12.993,16,2,0,0,3.235,19.919-10,25,0,0-17.443,9.669-21-5,0,0-2.924-7.533,4-19,0,0,3.273-4.442,2-6,0,0-.851-2.194-2-2C249,217,242.269,212.893,246,209Z" transform="translate(-137 -138.156)"/>
  <path class="cls-3" d="M187,315s9.162-53.883,22-65c0,0,13.532-11.715,39,6l-11,14-39,22s-6.982,20.866-8,25Z" transform="translate(-137 -138.156)"/>
  <path class="cls-4" d="M211,303s8.327,33.238,5,43.733h2s4.04-33.268,15-36.733C233,310,214.564,307.752,211,303Z" transform="translate(-137 -138.156)"/>
  <path class="cls-5" d="M257,316s15.079,24.04,13,46h3s2.366-28.614,13-46H257Z" transform="translate(-137 -138.156)"/>
  <path class="cls-4" d="M312,283a329.926,329.926,0,0,0,6,35h-2s-6.059-28.614-14-24Z" transform="translate(-137 -138.156)"/>
  <path class="cls-6" d="M201,347s-10.368-55.589,4-80c0,0,7.294-15.808,28,2l-6,16-17,13s-5.781,34-5,49h-4Z" transform="translate(-137 -138.156)"/>
  <path class="cls-5" d="M205,347H181S188.449,336.377,205,347Z" transform="translate(-137 -138.156)"/>
  <path id="Shape_76_copy" data-name="Shape 76 copy" class="cls-4" d="M191,317H171S177.207,308,191,317Z" transform="translate(-137 -138.156)"/>
  <path class="cls-7" d="M275.81,176.629s-5.311,11.278.3,26.017c0,0,6.355,2.954,16.829-3.844,0,0,8.391-8.428,10.239-15.529C303.175,183.273,288.4,161.316,275.81,176.629Z" transform="translate(-137 -138.156)"/>
  <path class="cls-6" d="M267,180a113.251,113.251,0,0,1,13-2c4.021,1.893,7.818,3.009,17,8,0,0,1.837,5.6,5.2,8.018s1.013,0.987,1.013.987l1.934-5.026L305,185s3.783-3.223,2-7l-6-10-2-2H288s-6.881-.359-10,5l-3.059,3.377L267,179v1Z" transform="translate(-137 -138.156)"/>
  <path class="cls-3" d="M284,176s1.063-6.458,5.847-8.821l6.973-2.092,2.013,0.973s5.775,8.482,3.185,13.959c0,0-2.954,6.768-5.018,8.981-3.324-1.48-8.958-6.343-12-9Z" transform="translate(-137 -138.156)"/>
  <circle class="cls-8" cx="161.313" cy="27.407" r="1.5"/>
  <path class="cls-9" d="M210,304s-8.48-12.35-3-26c0,0,4.235-14.041,25-7,0,0,17.326,7.031,33-11,0,0,7.172-12.116,8-26,0,0,8.76-45.193,46-56,0,0,18.755-6.941,33,1,0,0,9.983,9.041-5,26,0,0-25.69,38.432-31,56,0,0-2.27,10.9-3,17,0,0,1.262,9.108-5,13,0,0-15.464,13.566-21,24,0,0-6.757,12.153-28,3,0,0-19.323-9.06-32-7C227,311,215.793,310.319,210,304Z" transform="translate(-137 -138.156)"/>
  <path class="cls-4" d="M259,317s15.116,7.268,18-9c0,0,14.472-47.073,20-58,0,0,29.382-77.2,53-70,0,0,15.249,4.719-4,29,0,0-28.057,33.576-33,65,0,0-.631,14.262-7,21,0.139,0-18.835,26.305-32.329,26C270,321,261.9,319.9,259,317Z" transform="translate(-137 -138.156)"/>
  <path class="cls-10" d="M219,276s5.187-13.134,15-17a147.065,147.065,0,0,1,19-5s15.432-4.592,20-17c0,0-4.23,25.065-20,32,0,0-6.118,4.331-17,3C236,272,231.638,268.628,219,276Z" transform="translate(-137 -138.156)"/>
  <path class="cls-4" d="M247,203h5s-0.305,9.774,6,4c0,0,2.556-3.638,3-6,0,0,4.117-8,11-6l1,2s-6.4-2.717-10,6c0,0-2.689,12.466-12,11,0,0-7.458-.365-6-8l1-3h1Z" transform="translate(-137 -138.156)"/>
</svg>
